<svg width="386" height="386" viewBox="0 0 386 386" fill="none" xmlns="http://www.w3.org/2000/svg">
<path d="M330.5 138C316.328 138.378 302.583 133.125 292.275 123.391C281.967 113.658 275.935 100.237 275.5 86.0663C275.756 75.9487 278.869 66.1101 284.479 57.6863L319.087 6.19252C320.417 4.42202 322.14 2.98516 324.121 1.99559C326.102 1.00601 328.286 0.490845 330.5 0.490845C332.714 0.490845 334.898 1.00601 336.879 1.99559C338.859 2.98516 340.583 4.42202 341.912 6.19252L376.081 57.0125C381.921 65.6036 385.189 75.6828 385.5 86.0663C385.065 100.237 379.033 113.658 368.725 123.391C358.417 133.125 344.672 138.378 330.5 138V138ZM330.5 38.4913L307.73 72.3575C304.884 76.3857 303.244 81.1404 303 86.0663C303.798 92.7992 307.038 99.0054 312.107 103.509C317.175 108.012 323.72 110.499 330.5 110.499C337.28 110.499 343.825 108.012 348.893 103.509C353.962 99.0054 357.202 92.7992 358 86.0663C357.692 80.8734 355.903 75.8776 352.844 71.67L330.5 38.4913ZM296.125 385.5H89.875C67.7245 385.524 46.3554 377.316 29.916 362.47C13.4766 347.625 3.13985 327.2 0.912383 305.162C-1.31509 283.124 4.72565 261.044 17.8619 243.209C30.9982 225.374 50.2927 213.057 72 208.648C77.859 180.897 93.0786 156.004 115.108 138.14C137.137 120.276 164.638 110.527 193 110.527C221.362 110.527 248.863 120.276 270.892 138.14C292.921 156.004 308.141 180.897 314 208.648C335.707 213.057 355.002 225.374 368.138 243.209C381.274 261.044 387.315 283.124 385.088 305.162C382.86 327.2 372.523 347.625 356.084 362.47C339.645 377.316 318.275 385.524 296.125 385.5V385.5ZM193 138C169.524 138.022 146.866 146.623 129.289 162.184C111.712 177.745 100.429 199.194 97.5612 222.494L96.1862 233.659L84.98 234.539C69.0197 235.754 54.1529 243.112 43.5074 255.066C32.862 267.019 27.2678 282.636 27.9019 298.629C28.5361 314.623 35.349 329.748 46.9074 340.821C58.4658 351.894 73.8686 358.052 89.875 358H296.125C312.131 358.052 327.534 351.894 339.093 340.821C350.651 329.748 357.464 314.623 358.098 298.629C358.732 282.636 353.138 267.019 342.493 255.066C331.847 243.112 316.98 235.754 301.02 234.539L289.814 233.659L288.452 222.494C285.579 199.194 274.292 177.747 256.713 162.187C239.134 146.626 216.476 138.025 193 138V138Z" fill="black"/>
</svg>
