<svg width="354" height="354" viewBox="0 0 354 354" fill="none" xmlns="http://www.w3.org/2000/svg">
<path d="M194.667 62.1667C194.667 28.07 166.93 0.333313 132.833 0.333313C96.8994 0.333313 75.4167 27.275 75.4167 53.3333H110.75C110.75 46.0016 117.605 35.6666 132.833 35.6666C147.444 35.6666 159.333 47.5563 159.333 62.1667C159.333 76.777 147.444 88.6667 132.833 88.6667H0.333344V124H132.833C166.93 124 194.667 96.2633 194.667 62.1667ZM238.833 230H106.333V265.333H238.833C253.444 265.333 265.333 277.223 265.333 291.833C265.333 306.444 253.444 318.333 238.833 318.333C223.605 318.333 216.75 307.998 216.75 300.667H181.417C181.417 326.725 202.899 353.667 238.833 353.667C272.93 353.667 300.667 325.93 300.667 291.833C300.667 257.737 272.93 230 238.833 230Z" fill="black"/>
<path d="M283 53.3333C244.027 53.3333 212.333 85.0273 212.333 124H247.667C247.667 104.514 263.514 88.6666 283 88.6666C302.486 88.6666 318.333 104.514 318.333 124C318.333 143.486 302.486 159.333 283 159.333H0.333344V194.667H283C321.973 194.667 353.667 162.973 353.667 124C353.667 85.0273 321.973 53.3333 283 53.3333ZM0.333344 230H71V265.333H0.333344V230Z" fill="black"/>
</svg>
